<svg viewBox="0 0 400 107" version="1.1" xmlns="http://www.w3.org/2000/svg" xmlns:xlink="http://www.w3.org/1999/xlink" xml:space="preserve" xmlns:serif="http://www.serif.com/" style="fill-rule:evenodd;clip-rule:evenodd;stroke-linejoin:round;stroke-miterlimit:1.41421;"><rect id="Logo" x="0" y="0" width="400" height="106.221" style="fill:none;"/><clipPath id="_clip1"><rect x="0" y="0" width="400" height="106.221"/></clipPath><g clip-path="url(#_clip1)"><path d="M32.279,79.395l0,-18.319c0,-0.457 0.159,-0.846 0.478,-1.166c0.319,-0.32 0.707,-0.48 1.162,-0.48c0.456,0 0.844,0.16 1.163,0.48c0.319,0.32 0.478,0.709 0.478,1.166l0,18.319c0,2.882 1.003,5.329 3.008,7.341c2.005,2.013 4.421,3.042 7.246,3.088c2.872,-0.046 5.321,-1.075 7.349,-3.088c2.028,-2.012 3.043,-4.459 3.043,-7.341l0,-18.319c0,-0.457 0.17,-0.846 0.512,-1.166c0.342,-0.32 0.741,-0.48 1.197,-0.48c0.455,0 0.843,0.16 1.162,0.48c0.319,0.32 0.478,0.709 0.478,1.166l0,18.319c0,3.796 -1.333,7.032 -3.999,9.708c-2.666,2.676 -5.89,4.014 -9.673,4.014c-3.783,0 -6.996,-1.338 -9.639,-4.014c-2.644,-2.676 -3.965,-5.912 -3.965,-9.708Z" style="fill:#15abd0;fill-rule:nonzero;"/><path d="M75.347,91.47l0,-44.733c0,-0.457 0.159,-0.846 0.479,-1.166c0.319,-0.321 0.706,-0.481 1.162,-0.481c0.455,0 0.854,0.16 1.196,0.481c0.342,0.32 0.513,0.709 0.513,1.166l0,44.733c0,0.458 -0.171,0.846 -0.513,1.167c-0.342,0.32 -0.741,0.48 -1.196,0.48c-0.456,0 -0.843,-0.16 -1.162,-0.48c-0.32,-0.321 -0.479,-0.709 -0.479,-1.167Z" style="fill:#15abd0;fill-rule:nonzero;"/><path d="M89.771,88.314c-0.774,-0.686 -0.843,-1.418 -0.205,-2.195c0.274,-0.366 0.638,-0.572 1.094,-0.618c0.456,-0.045 0.866,0.092 1.231,0.412c3.555,2.607 6.79,3.911 9.707,3.911c2.917,0 5.218,-0.686 6.905,-2.059c1.686,-1.143 2.518,-2.481 2.495,-4.013c-0.023,-1.533 -0.775,-2.893 -2.256,-4.083c-1.481,-1.189 -3.885,-2.058 -7.212,-2.607l-0.137,-0.068c-3.555,-0.641 -6.084,-1.51 -7.588,-2.607c-2.416,-1.418 -3.623,-3.431 -3.623,-6.038c0,-2.607 1.207,-4.803 3.623,-6.587c2.187,-1.509 4.922,-2.264 8.203,-2.264c1.322,0 2.655,0.218 4,0.652c1.344,0.435 2.369,0.846 3.076,1.235c0.706,0.389 1.675,0.972 2.905,1.75c0.365,0.274 0.593,0.64 0.684,1.097c0.091,0.458 0.023,0.869 -0.205,1.235c-0.228,0.366 -0.57,0.595 -1.026,0.686c-0.455,0.092 -0.866,0.023 -1.23,-0.205c-1.14,-0.778 -1.994,-1.338 -2.564,-1.681c-0.569,-0.343 -1.401,-0.709 -2.495,-1.098c-1.094,-0.389 -2.142,-0.583 -3.145,-0.583c-2.643,0 -4.717,0.606 -6.221,1.818c-1.504,1.212 -2.256,2.481 -2.256,3.808c0,1.326 0.638,2.492 1.915,3.499c1.595,1.098 3.873,1.875 6.836,2.332l0.136,0c2.963,0.458 5.675,1.373 8.136,2.745c2.506,1.646 3.76,3.853 3.76,6.621c0,2.767 -1.242,5.077 -3.726,6.929c-2.484,1.853 -5.298,2.779 -8.443,2.779c-4.33,-0.046 -8.454,-1.647 -12.374,-4.803Z" style="fill:#15abd0;fill-rule:nonzero;"/><path d="M151.981,59.498c0.456,0 0.843,0.16 1.162,0.481c0.319,0.32 0.479,0.709 0.479,1.166l0,30.325c0,0.458 -0.16,0.846 -0.479,1.167c-0.319,0.32 -0.706,0.48 -1.162,0.48c-0.456,0 -0.843,-0.16 -1.162,-0.48c-0.319,-0.321 -0.478,-0.709 -0.478,-1.167l0,-5.008c-1.459,2.058 -3.293,3.682 -5.504,4.871c-2.21,1.189 -4.569,1.784 -7.075,1.784c-4.375,0 -8.112,-1.647 -11.212,-4.94c-3.099,-3.293 -4.648,-7.25 -4.648,-11.869c0,-4.62 1.549,-8.577 4.648,-11.87c3.1,-3.293 6.837,-4.94 11.212,-4.94c2.506,0 4.865,0.595 7.075,1.784c2.211,1.189 4.045,2.79 5.504,4.803l0,-4.94c0,-0.457 0.159,-0.846 0.478,-1.166c0.319,-0.321 0.706,-0.481 1.162,-0.481Zm-23.072,26.381c2.484,2.63 5.446,3.945 8.887,3.945c3.441,0 6.392,-1.315 8.853,-3.945c2.461,-2.63 3.692,-5.821 3.692,-9.571c0,-3.751 -1.231,-6.953 -3.692,-9.606c-2.461,-2.653 -5.412,-3.979 -8.853,-3.979c-3.441,0 -6.403,1.326 -8.887,3.979c-2.484,2.653 -3.726,5.855 -3.726,9.606c0,3.75 1.242,6.941 3.726,9.571Z" style="fill:#15abd0;fill-rule:nonzero;"/><path d="M167.841,91.47l0,-30.256c0,-0.458 0.16,-0.847 0.479,-1.167c0.319,-0.32 0.706,-0.48 1.162,-0.48c0.456,0 0.843,0.16 1.162,0.48c0.319,0.32 0.479,0.709 0.479,1.167l0,7.409c0.182,-0.366 0.342,-0.64 0.478,-0.823c3.51,-5.489 7.976,-8.233 13.399,-8.233c0.456,0 0.843,0.16 1.162,0.48c0.319,0.32 0.479,0.709 0.479,1.167c0,0.457 -0.16,0.846 -0.479,1.166c-0.319,0.32 -0.706,0.48 -1.162,0.48c-3.646,0 -6.882,1.83 -9.707,5.489c-1.641,2.195 -2.985,4.803 -4.034,7.821c-0.091,0.183 -0.136,0.366 -0.136,0.549l0,14.751c0,0.458 -0.16,0.846 -0.479,1.167c-0.319,0.32 -0.706,0.48 -1.162,0.48c-0.456,0 -0.843,-0.16 -1.162,-0.48c-0.319,-0.321 -0.479,-0.709 -0.479,-1.167Z" style="fill:#15abd0;fill-rule:nonzero;"/><path d="M224.65,91.47l0,-4.871c-1.504,2.013 -3.372,3.602 -5.605,4.768c-2.233,1.167 -4.649,1.75 -7.247,1.75c-4.512,0 -8.34,-1.635 -11.485,-4.906c-3.144,-3.27 -4.717,-7.227 -4.717,-11.869c0,-4.643 1.573,-8.611 4.717,-11.904c3.145,-3.293 6.973,-4.94 11.485,-4.94c2.598,0 5.014,0.595 7.247,1.784c2.233,1.189 4.101,2.79 5.605,4.803l0,-19.348c0,-0.457 0.171,-0.846 0.513,-1.166c0.342,-0.321 0.741,-0.481 1.197,-0.481c0.455,0 0.843,0.16 1.162,0.481c0.319,0.32 0.478,0.709 0.478,1.166l0,44.733c0,0.458 -0.159,0.846 -0.478,1.167c-0.319,0.32 -0.707,0.48 -1.162,0.48c-0.456,0 -0.855,-0.16 -1.197,-0.48c-0.342,-0.321 -0.513,-0.709 -0.513,-1.167Zm-21.91,-5.626c2.53,2.607 5.538,3.911 9.024,3.911c3.487,0 6.472,-1.246 8.956,-3.739c2.483,-2.493 3.794,-5.523 3.93,-9.091l0,-1.098c-0.136,-3.613 -1.447,-6.678 -3.93,-9.193c-2.484,-2.516 -5.469,-3.774 -8.956,-3.774c-3.486,0 -6.494,1.315 -9.024,3.945c-2.529,2.63 -3.794,5.809 -3.794,9.537c0,3.728 1.265,6.895 3.794,9.502Z" style="fill:#cecece;fill-rule:nonzero;"/><path d="M243.04,91.47l0,-30.325c0,-0.457 0.159,-0.846 0.478,-1.166c0.32,-0.321 0.718,-0.481 1.197,-0.481c0.478,0 0.877,0.16 1.196,0.481c0.319,0.32 0.479,0.709 0.479,1.166l0,30.325c0,0.458 -0.171,0.846 -0.513,1.167c-0.342,0.32 -0.741,0.48 -1.196,0.48c-0.456,0 -0.843,-0.16 -1.163,-0.48c-0.319,-0.321 -0.478,-0.709 -0.478,-1.167Zm0,-39.725l0,-1.578c0,-0.457 0.159,-0.846 0.478,-1.166c0.32,-0.32 0.707,-0.48 1.163,-0.48c0.455,0 0.854,0.16 1.196,0.48c0.342,0.32 0.513,0.709 0.513,1.166l0,1.578c0,0.504 -0.171,0.927 -0.513,1.27c-0.342,0.343 -0.741,0.514 -1.196,0.514c-0.456,0 -0.843,-0.171 -1.163,-0.514c-0.319,-0.343 -0.478,-0.766 -0.478,-1.27Z" style="fill:#cecece;fill-rule:nonzero;"/><path d="M291.441,61.145l0,29.296c0,4.345 -1.539,8.062 -4.615,11.149c-3.076,3.088 -6.802,4.631 -11.177,4.631c-2.233,0 -4.558,-0.526 -6.973,-1.578c-0.912,-0.64 -1.14,-1.372 -0.684,-2.195c0.502,-1.052 1.231,-1.304 2.188,-0.755c1.732,0.823 3.555,1.235 5.469,1.235c3.463,0 6.414,-1.212 8.853,-3.636c2.438,-2.424 3.657,-5.375 3.657,-8.851l0,-4.116c-1.413,2.058 -3.213,3.67 -5.401,4.837c-2.187,1.166 -4.557,1.749 -7.109,1.749c-4.375,0 -8.09,-1.635 -11.143,-4.906c-3.054,-3.27 -4.581,-7.203 -4.581,-11.8c0,-4.597 1.539,-8.531 4.615,-11.801c3.076,-3.271 6.779,-4.906 11.109,-4.906c2.506,0 4.865,0.595 7.075,1.784c2.211,1.189 4.022,2.79 5.435,4.803l0,-4.94c0,-0.457 0.171,-0.846 0.513,-1.166c0.342,-0.321 0.729,-0.481 1.162,-0.481c0.433,0 0.809,0.16 1.128,0.481c0.319,0.32 0.479,0.709 0.479,1.166Zm-24.577,24.596c2.438,2.63 5.378,3.945 8.819,3.945c3.441,0 6.38,-1.315 8.819,-3.945c2.438,-2.63 3.657,-5.82 3.657,-9.571c0,-3.75 -1.219,-6.918 -3.657,-9.502c-2.439,-2.584 -5.378,-3.876 -8.819,-3.876c-3.441,0 -6.381,1.303 -8.819,3.91c-2.438,2.607 -3.657,5.775 -3.657,9.503c0,3.727 1.219,6.906 3.657,9.536Z" style="fill:#cecece;fill-rule:nonzero;"/><path d="M307.369,91.47l0,-30.325c0,-0.457 0.159,-0.846 0.478,-1.166c0.32,-0.321 0.718,-0.481 1.197,-0.481c0.478,0 0.877,0.16 1.196,0.481c0.319,0.32 0.479,0.709 0.479,1.166l0,30.325c0,0.458 -0.171,0.846 -0.513,1.167c-0.342,0.32 -0.741,0.48 -1.196,0.48c-0.456,0 -0.843,-0.16 -1.163,-0.48c-0.319,-0.321 -0.478,-0.709 -0.478,-1.167Zm0,-39.725l0,-1.578c0,-0.457 0.159,-0.846 0.478,-1.166c0.32,-0.32 0.707,-0.48 1.163,-0.48c0.455,0 0.854,0.16 1.196,0.48c0.342,0.32 0.513,0.709 0.513,1.166l0,1.578c0,0.504 -0.171,0.927 -0.513,1.27c-0.342,0.343 -0.741,0.514 -1.196,0.514c-0.456,0 -0.843,-0.171 -1.163,-0.514c-0.319,-0.343 -0.478,-0.766 -0.478,-1.27Z" style="fill:#cecece;fill-rule:nonzero;"/><path d="M336.56,59.498c0.41,0 0.786,0.172 1.128,0.515c0.341,0.343 0.512,0.72 0.512,1.132c0,0.412 -0.171,0.789 -0.512,1.132c-0.342,0.343 -0.718,0.515 -1.128,0.515l-4.307,0l0,24.493c0,0.732 0.285,1.327 0.854,1.784c0.57,0.457 1.083,0.686 1.539,0.686c0.455,0 0.865,0.183 1.23,0.549c0.365,0.366 0.547,0.755 0.547,1.166c0,0.412 -0.182,0.789 -0.547,1.132c-0.365,0.343 -0.752,0.515 -1.162,0.515c-1.686,0 -3.088,-0.549 -4.204,-1.647c-1.117,-1.097 -1.675,-2.493 -1.675,-4.185l0,-24.493l-4.17,0c-0.73,0 -1.185,-0.138 -1.368,-0.412c-0.182,-0.275 -0.273,-0.64 -0.273,-1.098c0,-0.457 0.023,-0.777 0.068,-0.96c0.137,-0.549 0.661,-0.824 1.573,-0.824l4.17,0l0,-12.487c0,-0.411 0.171,-0.789 0.512,-1.132c0.342,-0.343 0.73,-0.514 1.163,-0.514c0.433,0 0.831,0.171 1.196,0.514c0.365,0.343 0.547,0.721 0.547,1.132l0,12.487l4.307,0Z" style="fill:#cecece;fill-rule:nonzero;"/><path d="M380.312,59.498c0.455,0 0.843,0.16 1.162,0.481c0.319,0.32 0.478,0.709 0.478,1.166l0,30.325c0,0.458 -0.159,0.846 -0.478,1.167c-0.319,0.32 -0.707,0.48 -1.162,0.48c-0.456,0 -0.844,-0.16 -1.163,-0.48c-0.319,-0.321 -0.478,-0.709 -0.478,-1.167l0,-5.008c-1.458,2.058 -3.293,3.682 -5.503,4.871c-2.211,1.189 -4.569,1.784 -7.076,1.784c-4.375,0 -8.112,-1.647 -11.211,-4.94c-3.099,-3.293 -4.649,-7.25 -4.649,-11.869c0,-4.62 1.55,-8.577 4.649,-11.87c3.099,-3.293 6.836,-4.94 11.211,-4.94c2.507,0 4.865,0.595 7.076,1.784c2.21,1.189 4.045,2.79 5.503,4.803l0,-4.94c0,-0.457 0.159,-0.846 0.478,-1.166c0.319,-0.321 0.707,-0.481 1.163,-0.481Zm-23.073,26.381c2.484,2.63 5.447,3.945 8.887,3.945c3.441,0 6.392,-1.315 8.853,-3.945c2.461,-2.63 3.692,-5.821 3.692,-9.571c0,-3.751 -1.231,-6.953 -3.692,-9.606c-2.461,-2.653 -5.412,-3.979 -8.853,-3.979c-3.44,0 -6.403,1.326 -8.887,3.979c-2.484,2.653 -3.725,5.855 -3.725,9.606c0,3.75 1.241,6.941 3.725,9.571Z" style="fill:#cecece;fill-rule:nonzero;"/><path d="M396.65,91.47l0,-44.733c0,-0.457 0.16,-0.846 0.479,-1.166c0.319,-0.321 0.706,-0.481 1.162,-0.481c0.456,0 0.854,0.16 1.196,0.481c0.342,0.32 0.513,0.709 0.513,1.166l0,44.733c0,0.458 -0.171,0.846 -0.513,1.167c-0.342,0.32 -0.74,0.48 -1.196,0.48c-0.456,0 -0.843,-0.16 -1.162,-0.48c-0.319,-0.321 -0.479,-0.709 -0.479,-1.167Z" style="fill:#cecece;fill-rule:nonzero;"/><path d="M13.569,93.7l-13.517,-7.832l-0.052,0.03l0,-15.725l0.001,0.001l0.063,-7.742l-0.063,-7.742l-0.001,0.001l0,-46.933l0.09,0.052l13.479,-7.81l0,93.7Z" style="fill:#15abd0;fill-rule:nonzero;"/><path id="Shape" d="M13.569,0l8.198,4.711l0.001,0l8.165,4.693l0.033,-0.044l8.186,4.705l0.012,-0.017l8.199,4.712l0,21.784l-8.199,4.712l-0.012,-0.016l-8.186,4.704l-0.033,-0.043l-8.165,4.693l-0.001,-0.001l-8.198,4.712l0,-15.604l0.001,0l8.198,-4.711l0.033,0.043l8.165,-4.692l0.012,0.016l8.186,-4.705l-8.186,-4.704l-0.012,0.016l-8.165,-4.693l-0.033,0.044l-8.198,-4.712l-0.001,0.001l0,-15.604Z" style="fill:#acdb53;fill-rule:nonzero;"/></g></svg>